<?xml version="1.0" standalone="no"?>
<!DOCTYPE svg PUBLIC "-//W3C//DTD SVG 20010904//EN"
 "http://www.w3.org/TR/2001/REC-SVG-20010904/DTD/svg10.dtd">
<svg version="1.0" xmlns="http://www.w3.org/2000/svg"
 width="1300.000000pt" height="1300.000000pt" viewBox="0 0 1300.000000 1300.000000"
 preserveAspectRatio="xMidYMid meet">
<metadata>
Created by potrace 1.14, written by Peter Selinger 2001-2017
</metadata>
<g transform="translate(0.000000,1300.000000) scale(0.100000,-0.100000)"
fill="#000000" stroke="none">
<path d="M0 6500 l0 -6490 6500 0 6500 0 0 6490 0 6490 -6500 0 -6500 0 0
-6490z m6505 5514 c18 -8 37 -23 41 -32 5 -9 11 -78 14 -152 l5 -135 47 -3
c134 -9 128 -192 -6 -192 l-46 0 0 -218 0 -219 42 -19 c56 -25 129 -98 158
-159 21 -42 25 -65 25 -140 0 -78 -4 -97 -28 -147 -31 -64 -75 -107 -147 -143
l-50 -25 0 -125 0 -125 28 -5 c162 -31 263 -75 377 -165 132 -106 216 -225
271 -385 23 -67 28 -102 32 -216 5 -149 -9 -241 -53 -350 -44 -109 -153 -253
-245 -323 l-50 -38 2 -834 3 -835 78 -33 c356 -155 647 -496 742 -870 51 -201
56 -424 15 -628 -52 -253 -160 -448 -355 -643 -124 -124 -251 -215 -390 -281
l-95 -45 0 -1070 0 -1069 645 0 c355 0 645 1 645 3 0 2 -206 370 -457 818
-421 750 -456 818 -457 862 -1 43 3 52 32 78 37 33 74 37 115 11 22 -13 146
-227 517 -892 l487 -875 394 -5 c217 -3 402 -9 412 -14 21 -10 47 -57 47 -86
0 -33 -26 -75 -55 -88 -35 -16 -5536 -18 -5566 -2 -22 13 -49 61 -49 90 0 33
26 75 55 88 19 9 134 12 414 12 l388 0 489 877 c539 966 514 928 594 904 22
-6 46 -21 55 -34 39 -56 43 -48 -440 -917 -250 -450 -455 -821 -455 -824 0 -3
288 -6 640 -6 l640 0 0 1075 c0 918 -2 1075 -14 1075 -29 0 -217 102 -298 162
-118 87 -263 237 -342 355 -147 222 -210 436 -210 723 0 284 64 501 211 725
129 194 352 384 567 480 l86 39 0 841 0 841 -68 55 c-182 149 -282 367 -282
614 0 224 64 389 209 547 128 139 261 211 464 253 l27 5 0 124 0 123 -57 34
c-186 110 -218 362 -64 515 22 22 58 49 80 59 l41 18 0 224 0 223 -46 0 c-37
0 -51 5 -75 29 -61 62 -25 150 67 160 l49 6 5 140 c3 77 9 146 14 153 9 15 63
41 84 42 8 0 29 -7 47 -16z m3118 -1166 c74 -35 165 -127 203 -205 26 -52 28
-68 29 -163 0 -97 -2 -110 -31 -171 -37 -78 -129 -176 -194 -207 -74 -35 -159
-42 -509 -42 l-333 0 -49 -27 c-55 -30 -90 -70 -108 -126 -25 -76 18 -178 93
-222 l43 -25 1002 0 c1077 0 1043 2 1071 -49 20 -39 12 -91 -19 -122 l-30 -29
-1033 2 -1033 3 -58 23 c-35 15 -81 45 -117 79 -134 124 -174 315 -98 472 33
69 125 156 205 194 l68 32 391 5 391 5 41 27 c44 30 86 93 96 147 15 80 -45
174 -139 217 l-50 24 -678 0 -679 0 -29 29 c-38 39 -39 87 -3 130 l26 31 737
-2 736 -3 58 -27z m-5432 -2684 c36 -18 62 -73 53 -109 -3 -14 -20 -36 -36
-50 l-30 -25 -429 0 c-414 0 -432 -1 -479 -21 -49 -21 -102 -75 -120 -124 -28
-74 10 -182 82 -231 l41 -29 441 -5 c421 -5 443 -6 493 -26 188 -77 293 -254
262 -443 -20 -127 -116 -253 -236 -309 l-58 -27 -948 -3 -948 -2 -30 29 c-54
55 -34 140 39 161 24 6 349 10 937 10 l900 0 40 23 c106 60 138 207 64 292
-17 19 -47 45 -67 57 -37 23 -40 23 -472 28 -415 5 -437 6 -487 27 -114 46
-212 147 -250 256 -26 77 -24 205 6 280 42 107 173 219 287 246 22 5 236 9
477 10 379 1 442 -1 468 -15z m713 -9 c29 -31 35 -59 24 -102 -16 -62 -39 -68
-254 -68 -179 0 -195 1 -220 21 -52 38 -56 103 -9 150 24 24 26 24 230 24
l206 0 23 -25z m2837 -363 c32 -36 36 -69 15 -111 -24 -45 -51 -51 -245 -51
-163 0 -180 2 -204 20 -67 53 -46 150 38 173 11 3 98 5 193 4 l174 -2 29 -33z
m576 19 c48 -32 57 -104 19 -148 l-24 -28 -202 0 -202 0 -24 28 c-26 30 -31
75 -13 110 27 50 55 56 254 54 129 -2 175 -5 192 -16z m2307 -6392 c14 -7 32
-27 42 -47 21 -44 10 -87 -29 -116 l-28 -21 -4136 -3 c-3719 -2 -4138 -1
-4168 13 -61 30 -74 107 -26 156 l29 29 4146 0 c3078 0 4151 -3 4170 -11z"/>
<path d="M6303 9956 c-183 -46 -348 -202 -413 -390 -10 -30 -22 -76 -25 -101
l-7 -45 466 0 c501 0 516 -1 531 -51 4 -11 9 -18 12 -16 10 10 -18 47 -47 62
-24 12 -82 15 -334 15 l-305 0 18 65 c25 88 74 167 153 247 80 79 194 140 303
161 l70 14 -65 23 c-81 28 -275 37 -357 16z"/>
<path d="M6871 9322 c-1 -30 -27 -78 -48 -91 -10 -6 -13 -11 -6 -11 27 0 72
82 60 112 -3 7 -6 3 -6 -10z"/>
<path d="M5885 9193 c18 -74 72 -161 150 -239 130 -131 260 -185 440 -183 67
1 80 3 53 9 -52 10 -182 112 -236 185 -49 66 -79 125 -98 197 l-12 48 311 3
c255 2 227 3 -152 5 l-463 2 7 -27z"/>
<path d="M6220 8245 l0 -345 126 0 c125 0 126 0 155 -29 41 -41 41 -98 0 -143
l-29 -33 -126 -4 -126 -3 0 -312 0 -312 53 7 c28 4 120 9 202 10 83 1 128 4
102 6 l-48 4 4 347 c3 191 5 352 5 357 0 6 -2 180 -5 388 l-4 377 -77 0 c-42
0 -108 7 -147 15 -38 8 -73 15 -77 15 -5 0 -8 -155 -8 -345z"/>
<path d="M6705 7830 c0 -421 1 -593 2 -382 2 210 2 554 0 765 -1 210 -2 38 -2
-383z"/>
<path d="M6653 7073 c9 -2 23 -2 30 0 6 3 -1 5 -18 5 -16 0 -22 -2 -12 -5z"/>
<path d="M6236 6865 c-157 -33 -316 -103 -436 -194 -86 -65 -225 -210 -278
-291 -130 -198 -192 -429 -179 -670 16 -288 121 -524 327 -730 176 -176 378
-279 617 -315 136 -21 139 -19 49 20 -322 140 -566 422 -647 750 -26 104 -36
332 -19 446 32 224 128 413 294 587 210 219 410 315 722 345 l129 13 -95 23
c-121 30 -376 38 -484 16z"/>
<path d="M6910 6780 c8 -5 20 -10 25 -10 6 0 3 5 -5 10 -8 5 -19 10 -25 10 -5
0 -3 -5 5 -10z"/>
<path d="M7175 6610 c10 -11 20 -20 23 -20 3 0 -3 9 -13 20 -10 11 -20 20 -23
20 -3 0 3 -9 13 -20z"/>
<path d="M7286 6506 c160 -189 241 -369 273 -601 l10 -70 -4 70 c-13 205 -122
442 -281 610 l-56 60 58 -69z"/>
<path d="M6111 5737 c-1 -35 23 -83 48 -97 13 -7 254 -9 718 -8 l698 3 -702 5
-702 5 -22 22 c-12 12 -25 39 -29 60 -6 32 -8 33 -9 10z"/>
<path d="M6210 3415 l0 -1045 248 2 c136 1 208 4 159 5 l-87 4 2 1027 3 1027
78 6 c43 4 81 10 85 13 4 4 -29 4 -73 -1 -100 -10 -236 -10 -337 -1 l-78 8 0
-1045z"/>
</g>
</svg>
